<svg width="41" height="40" viewBox="0 0 41 40" fill="none" xmlns="http://www.w3.org/2000/svg">
<rect x="0.5" width="40" height="40" rx="20" fill="white"/>
<path d="M28.2405 24.5917C29.3592 22.7059 29.7509 20.4766 29.3423 18.3224C28.9336 16.1682 27.7525 14.2373 26.0209 12.8923C24.2893 11.5473 22.1262 10.8806 19.9379 11.0176C17.7496 11.1545 15.6865 12.0856 14.1361 13.636C12.5856 15.1864 11.6545 17.2495 11.5176 19.4379C11.3806 21.6262 12.0473 23.7893 13.3923 25.5209C14.7373 27.2525 16.6682 28.4335 18.8224 28.8422C20.9766 29.251 23.2059 28.8592 25.0917 27.7406L25.0917 27.7405L28.2014 28.629C28.33 28.6657 28.4662 28.6674 28.5957 28.6338C28.7252 28.6003 28.8434 28.5327 28.9381 28.4381C29.0327 28.3434 29.1003 28.2252 29.1338 28.0957C29.1674 27.9662 29.1657 27.83 29.129 27.7014L28.2405 24.5916L28.2405 24.5917Z" stroke="black" stroke-width="2" stroke-linecap="round" stroke-linejoin="round"/>
<path d="M20.5 25C21.0523 25 21.5 24.5523 21.5 24C21.5 23.4477 21.0523 23 20.5 23C19.9477 23 19.5 23.4477 19.5 24C19.5 24.5523 19.9477 25 20.5 25Z" fill="black"/>
<path d="M20.5 21V20C20.8956 20 21.2822 19.8827 21.6111 19.6629C21.94 19.4432 22.1964 19.1308 22.3478 18.7654C22.4991 18.3999 22.5387 17.9978 22.4616 17.6098C22.3844 17.2219 22.1939 16.8655 21.9142 16.5858C21.6345 16.3061 21.2781 16.1156 20.8902 16.0384C20.5022 15.9613 20.1001 16.0009 19.7346 16.1522C19.3692 16.3036 19.0568 16.56 18.8371 16.8889C18.6173 17.2178 18.5 17.6044 18.5 18" stroke="black" stroke-width="2" stroke-linecap="round" stroke-linejoin="round"/>
</svg>
