<svg width="40" height="40" viewBox="0 0 40 40" fill="none" xmlns="http://www.w3.org/2000/svg">
<rect width="40" height="40" rx="20" fill="white"/>
<path d="M15.125 18.5C16.989 18.5 18.5 16.989 18.5 15.125C18.5 13.261 16.989 11.75 15.125 11.75C13.261 11.75 11.75 13.261 11.75 15.125C11.75 16.989 13.261 18.5 15.125 18.5Z" stroke="black" stroke-width="2" stroke-linecap="round" stroke-linejoin="round"/>
<path d="M24.875 18.5C26.739 18.5 28.25 16.989 28.25 15.125C28.25 13.261 26.739 11.75 24.875 11.75C23.011 11.75 21.5 13.261 21.5 15.125C21.5 16.989 23.011 18.5 24.875 18.5Z" stroke="black" stroke-width="2" stroke-linecap="round" stroke-linejoin="round"/>
<path d="M15.125 28.25C16.989 28.25 18.5 26.739 18.5 24.875C18.5 23.011 16.989 21.5 15.125 21.5C13.261 21.5 11.75 23.011 11.75 24.875C11.75 26.739 13.261 28.25 15.125 28.25Z" stroke="black" stroke-width="2" stroke-linecap="round" stroke-linejoin="round"/>
<path d="M24.875 28.25C26.739 28.25 28.25 26.739 28.25 24.875C28.25 23.011 26.739 21.5 24.875 21.5C23.011 21.5 21.5 23.011 21.5 24.875C21.5 26.739 23.011 28.25 24.875 28.25Z" stroke="black" stroke-width="2" stroke-linecap="round" stroke-linejoin="round"/>
</svg>
