<svg width="41" height="40" viewBox="0 0 41 40" fill="none" xmlns="http://www.w3.org/2000/svg">
<rect x="0.5" width="40" height="40" rx="20" fill="white"/>
<path d="M16.5 12C16.5 10.8954 17.3954 10 18.5 10H22.5C23.6046 10 24.5 10.8954 24.5 12V16C24.5 18.2091 22.7091 20 20.5 20C18.2909 20 16.5 18.2091 16.5 16V12Z" stroke="black" stroke-width="2"/>
<path d="M13.5 26C13.5 22.6863 16.1863 20 19.5 20H21.5C24.8137 20 27.5 22.686 27.5 25.9997C27.5 26.6401 27.5 27.2965 27.5 27.9997C27.5 29.1042 26.6046 30 25.5 30H15.5C14.3954 30 13.5 29.1046 13.5 28V26Z" stroke="black" stroke-width="2"/>
<path d="M17.5 14H23.5" stroke="black" stroke-width="2" stroke-linecap="round"/>
<path fill-rule="evenodd" clip-rule="evenodd" d="M21.5 23C21.5 22.4477 21.0523 22 20.5 22C19.9477 22 19.5 22.4477 19.5 23V24H18.5C17.9477 24 17.5 24.4477 17.5 25C17.5 25.5523 17.9477 26 18.5 26H19.5V27C19.5 27.5523 19.9477 28 20.5 28C21.0523 28 21.5 27.5523 21.5 27V26H22.5C23.0523 26 23.5 25.5523 23.5 25C23.5 24.4477 23.0523 24 22.5 24H21.5V23Z" fill="black"/>
</svg>
