<svg width="24" height="24" viewBox="0 0 24 24" fill="none" xmlns="http://www.w3.org/2000/svg">
<g opacity="0.6">
<path d="M12.0001 2.25C10.0718 2.25 8.1867 2.82183 6.58332 3.89317C4.97994 4.96452 3.73026 6.48726 2.9923 8.26884C2.25435 10.0504 2.06126 12.0108 2.43747 13.9021C2.81368 15.7934 3.74227 17.5307 5.10584 18.8943C6.4694 20.2579 8.20668 21.1865 10.098 21.5627C11.9893 21.9389 13.9497 21.7458 15.7313 21.0078C17.5129 20.2699 19.0356 19.0202 20.107 17.4168C21.1783 15.8134 21.7501 13.9284 21.7501 12C21.7471 9.41506 20.7189 6.93684 18.8911 5.10901C17.0633 3.28118 14.5851 2.25299 12.0001 2.25ZM12 18C11.7775 18 11.56 17.934 11.375 17.8104C11.19 17.6868 11.0458 17.5111 10.9607 17.3055C10.8755 17.1 10.8532 16.8738 10.8966 16.6555C10.9401 16.4373 11.0472 16.2368 11.2045 16.0795C11.3619 15.9222 11.5623 15.815 11.7806 15.7716C11.9988 15.7282 12.225 15.7505 12.4306 15.8356C12.6361 15.9208 12.8118 16.065 12.9354 16.25C13.0591 16.435 13.125 16.6525 13.125 16.875C13.125 17.1734 13.0065 17.4595 12.7955 17.6705C12.5846 17.8815 12.2984 18 12 18ZM14.6515 13.1514C14.133 13.6734 13.4713 14.0297 12.7501 14.1753V14.25C12.7501 14.4489 12.6711 14.6397 12.5305 14.7803C12.3898 14.921 12.199 15 12.0001 15C11.8012 15 11.6104 14.921 11.4698 14.7803C11.3291 14.6397 11.2501 14.4489 11.2501 14.25V13.5C11.2501 13.4015 11.2694 13.3039 11.3071 13.2129C11.3448 13.1219 11.4 13.0392 11.4697 12.9695C11.5393 12.8999 11.622 12.8446 11.713 12.807C11.8041 12.7693 11.9016 12.7499 12.0001 12.75C12.4451 12.75 12.8802 12.6181 13.2502 12.3709C13.6202 12.1237 13.9086 11.7723 14.0789 11.3611C14.2492 10.95 14.2937 10.4976 14.2069 10.0611C14.12 9.62469 13.9057 9.2238 13.5909 8.90918C12.7413 8.0581 11.2582 8.0581 10.41 8.90918C10.2 9.11734 10.0336 9.36519 9.92027 9.6383C9.80698 9.91141 9.74914 10.2043 9.75013 10.5C9.75013 10.6989 9.67111 10.8897 9.53046 11.0303C9.3898 11.171 9.19904 11.25 9.00013 11.25C8.80121 11.25 8.61045 11.171 8.4698 11.0303C8.32914 10.8897 8.25013 10.6989 8.25013 10.5C8.24874 10.0072 8.34513 9.51911 8.53371 9.06387C8.72229 8.60863 8.99933 8.19533 9.34876 7.8479C10.7638 6.43286 13.2357 6.43213 14.6522 7.84863C15.0004 8.19686 15.2765 8.61025 15.4649 9.0652C15.6533 9.52015 15.7502 10.0077 15.7501 10.5002C15.7501 10.9926 15.653 11.4801 15.4645 11.935C15.276 12.3899 14.9997 12.8032 14.6515 13.1514Z" fill="black"/>
</g>
</svg>
