<svg width="32" height="32" viewBox="0 0 32 32" fill="none" xmlns="http://www.w3.org/2000/svg">
<rect x="6.66699" y="5.33398" width="18.6667" height="24" fill="#006543"/>
<rect x="14.667" y="18.666" width="16" height="10.6667" rx="1" fill="#CC7ACC"/>
<rect x="30.667" y="21.334" width="1.33333" height="16" transform="rotate(90 30.667 21.334)" fill="#F2E6F2"/>
<rect x="29.333" y="25.334" width="1.33333" height="2.66667" rx="0.666667" transform="rotate(90 29.333 25.334)" fill="white"/>
<rect x="25.333" y="25.334" width="1.33333" height="1.33333" rx="0.666667" transform="rotate(90 25.333 25.334)" fill="white"/>
<path d="M22.6663 2.66732C21.1936 2.66732 19.9997 3.86122 19.9997 5.33398L25.333 5.33398C25.333 3.86122 24.1391 2.66732 22.6663 2.66732Z" fill="#006543"/>
<path fill-rule="evenodd" clip-rule="evenodd" d="M3.9998 2.66553C2.52704 2.66553 1.33313 3.85943 1.33313 5.33219L3.99996 5.33219V5.33285H22.6666V5.33219L19.9999 5.33219C19.9999 3.87933 21.1617 2.69783 22.607 2.66618H4.05933C4.03954 2.66575 4.01969 2.66553 3.9998 2.66553Z" fill="#7ACCB1"/>
<path d="M13.3334 13.6C13.3334 14.4837 14.0497 15.2 14.9334 15.2H17.0667C17.9504 15.2 18.6667 14.4837 18.6667 13.6C18.6667 12.7163 17.9504 12 17.0667 12H14.9334C14.0497 12 13.3334 11.2837 13.3334 10.4C13.3334 9.51634 14.0497 8.8 14.9334 8.8H17.0667C17.9504 8.8 18.6667 9.51634 18.6667 10.4M16 8V8.8M16 16V15.2" stroke="white" stroke-linecap="round"/>
</svg>
